# xmcd
#
# Track frame offsets: 
#        150
#        8588
#        18490
#        27243
#        43121
#        55787
#        74222
#        85182
#        101659
#        117820
#        130234
#        144492
#        159223
#        166674
#        175415
#        194954
#
# Disc length: 3067 seconds
#
# Revision: 1
# Processed by: cddbd v1.5.2PL0 Copyright (c) Steve Scherf et al.
# Submitted via: ExactAudioCopy v1.3
#
DISCID=d80bf910
DTITLE=Gigantor - The 100! Club
DYEAR=1997
DGENRE=Punk Rock
TTITLE0=Raumpatrouille
TTITLE1=Sauerkraut Is Powerkraut
TTITLE2=Ramone Control
TTITLE3=Come Back 4 U
TTITLE4=The Coldest Dish In Town
TTITLE5=The King Is Dead
TTITLE6=Golden Girls
TTITLE7=N.I.C.O.L.E.
TTITLE8=I Dream Of G-G-G-Gina
TTITLE9=Cold Baked Heart
TTITLE10=You Got To Lose
TTITLE11=She's My Girl
TTITLE12=Cal. Lifest. Ser. Test
TTITLE13=Hooligans In The Sun
TTITLE14=When The Sun Goes Down
TTITLE15=Madonna's Dickdarm
EXTD=YEAR: 1998
EXTT0=
EXTT1=
EXTT2=
EXTT3=
EXTT4=
EXTT5=
EXTT6=
EXTT7=
EXTT8=
EXTT9=
EXTT10=
EXTT11=
EXTT12=
EXTT13=
EXTT14=
EXTT15=
PLAYORDER=
